<?xml version="1.0" encoding="UTF-8" standalone="no"?>
<svg
   xmlns:dc="http://purl.org/dc/elements/1.1/"
   xmlns:cc="http://creativecommons.org/ns#"
   xmlns:rdf="http://www.w3.org/1999/02/22-rdf-syntax-ns#"
   xmlns:svg="http://www.w3.org/2000/svg"
   xmlns="http://www.w3.org/2000/svg"
   xmlns:sodipodi="http://sodipodi.sourceforge.net/DTD/sodipodi-0.dtd"
   xmlns:inkscape="http://www.inkscape.org/namespaces/inkscape"
   id="图层_1"
   data-name="图层 1"
   viewBox="0 0 612 581.45"
   version="1.1"
   sodipodi:docname="紫色无材质.svg"
   inkscape:version="0.92.2 2405546, 2018-03-11">
  <metadata
     id="metadata29">
    <rdf:RDF>
      <cc:Work
         rdf:about="">
        <dc:format>image/svg+xml</dc:format>
        <dc:type
           rdf:resource="http://purl.org/dc/dcmitype/StillImage" />
      </cc:Work>
    </rdf:RDF>
  </metadata>
  <sodipodi:namedview
     pagecolor="#ffffff"
     bordercolor="#666666"
     borderopacity="1"
     objecttolerance="10"
     gridtolerance="10"
     guidetolerance="10"
     inkscape:pageopacity="0"
     inkscape:pageshadow="2"
     inkscape:window-width="1920"
     inkscape:window-height="1023"
     id="namedview27"
     showgrid="false"
     inkscape:zoom="1.1480072"
     inkscape:cx="360.10901"
     inkscape:cy="275.94093"
     inkscape:window-x="0"
     inkscape:window-y="28"
     inkscape:window-maximized="1"
     inkscape:current-layer="图层_1" />
  <defs
     id="defs4">
    <style
       id="style2">.cls-1{fill:#a66dac;}.cls-1,.cls-2,.cls-3,.cls-4{fill-rule:evenodd;}.cls-2{fill:#8a5990;}.cls-3{fill:#1693d1;}.cls-4{fill:#5b9bd5;}</style>
  </defs>
  <title
     id="title6">画板 1</title>
  <path
     class="cls-1"
     d="M244.26,185l10.64,8.76L280,210l-9.73,6.56A62.58,62.58,0,0,0,254.59,236l-25,48-16.37-6.29L239.1,228a62.25,62.25,0,0,0,6.65-36.09Z"
     id="path8"
     style="fill:#000000" />
  <path
     class="cls-2"
     d="M371.8,282.23l3.16,1.32c31.87,13.39,81.36,35.05,103.86,54l18.92,34.54,27.84,50.31,17.32,31.4-5.2-3.24C520.68,441,411.21,390.9,336,368.12l-5.73-1.64-10.49-13.7L298.15,325.7l7.44,1.34A62.56,62.56,0,0,0,366,293.38l5.77-11.15Z"
     id="path10"
     style="fill:#000000" />
  <path
     class="cls-3"
     d="M321,0c46.1,117.84,84.54,199.24,125.71,277.71L462.69,308c-17.28-9.65-51.81-21-78.22-28.7l-9.55-2.7,20-38.61-55.72-28.87A62.48,62.48,0,0,0,291.34,205l-1.19.51-3.92-3.31c-12.28-10.92-23.93-22.39-33.81-33l-1.7-1.89,2.21-4.81C273.88,116,295.82,63.78,321,0Z"
     id="path12"
     style="fill:#000000" />
  <path
     class="cls-4"
     d="M373.69,278.13l2.92,1.17-2.93-1.14v0Z"
     id="path14"
     style="fill:#000000" />
  <path
     class="cls-3"
     d="M198.66,304.48l15.41,7.93-24.66,47.65a62.68,62.68,0,0,0,26.81,84.45l36.23,18.77,3.47,9.2,4.17,12.11-9.32,1.48C184.39,499.66,114.78,532,30,581.45c36.53-66,66.86-119.61,93.48-167.26l18.39-33.11,6.59-2.81A62.38,62.38,0,0,0,174,352.08Z"
     id="path16"
     style="fill:#000000" />
  <path
     class="cls-3"
     d="M340.31,380l7.21,3.05C425.06,416.32,538.88,470.36,557,485.42l6.36,5.44,3,5.55c14.32,26.28,29.47,54.41,45.65,85-59.44-35.52-111.4-61.53-159.45-78.51l-31.62-9.88-20.49-31.13c-13.05-18.88-26.51-37.52-40.1-55.77l-20-26.14Z"
     id="path18"
     style="fill:#000000" />
  <path
     class="cls-2"
     d="M233.16,296.87,258.62,310l3.64,1.27,24.13,19.6c42.83,53.11,86.66,121.4,120.08,166.51-48.36,3.79-79.89,14.21-115.22,58.26A439.84,439.84,0,0,0,276,488.39l-3.55-14.53,28.87-55.69a62.68,62.68,0,0,0-26.88-84.52L255.2,323l-2.56-1.39-25.93-13.41,6.45-11.31Z"
     id="path20"
     style="fill:#000000" />
  <path
     class="cls-2"
     d="m 56.15,308.26 -21.9,42.33 55.63,28.84 c 3.76613,1.95244 7.719438,3.52036 11.8,4.68 l 0.48,0.09 -13.16,9.72 c -13.020065,9.1719 -26.530079,17.62776 -40.47,25.33 1.19,-39.78 -9.22,-54 -49,-86.67 13.66,-5.74 25.91,-11.45 38,-16.83 z"
     id="path22"
     inkscape:connector-curvature="0"
     style="fill:#000000;fill-rule:evenodd"
     sodipodi:nodetypes="cccccccccc" />
  <path
     class="cls-1"
     d="M254.65,322.7l13.84,7.17A56.46,56.46,0,0,1,292.67,406l-26,50.14-50.14-26A56.46,56.46,0,0,1,192.39,354l5.12-9.89-.88,2.2a40,40,0,0,0,20.09,46.32L252.18,411l18.37-35.47a39.94,39.94,0,0,0-4.74-43.9Zm-40.86-37a8.84,8.84,0,1,0,8.83,8.84,8.84,8.84,0,0,0-8.83-8.84Zm-81-21.14a56.18,56.18,0,0,1,21.56,6.17l12.5,6.47-4.7-1.86a39.85,39.85,0,0,0-46.31,20.08L97.45,330.91l35.47,18.37a40,40,0,0,0,43.9-4.74l8.12-10.11-6.43,12.42A56.46,56.46,0,0,1,102.4,371l-50.14-26,26-50.14a56.46,56.46,0,0,1,54.54-30.34Zm62.94-22.16q6.75,19.59,18.3,29.3l8.23,5.38h0l9.3,3.18q14.77,3.14,34.35-3.6-19.57,6.74-29.29,18.29l-5.38,8.24h0L228,312.52q-3.14,14.76,3.6,34.35-6.73-19.59-18.29-29.3l-8.23-5.38h0l-9.3-3.18q-14.77-3.13-34.36,3.6,19.59-6.74,29.3-18.29l5.38-8.24h0l3.19-9.31q3.13-14.76-3.61-34.35Zm109.42-31.09a56.18,56.18,0,0,1,21.55,6.17l50.15,26-26,50.14a56.46,56.46,0,0,1-76.11,24.18l-12.49-6.47,4.69,1.86a40,40,0,0,0,46.32-20.08l18.36-35.47-35.46-18.37a39.92,39.92,0,0,0-46.78,7.38l-4.81,6.62,6-11.58a56.47,56.47,0,0,1,54.55-30.34ZM162.38,132.41l50.14,26a56.45,56.45,0,0,1,24.18,76.1l-5.12,9.9.87-2.21a40,40,0,0,0-20.08-46.32L176.9,177.49,158.53,213a39.94,39.94,0,0,0,4.74,43.89l11.16,9-13.84-7.16a56.47,56.47,0,0,1-24.17-76.11Z"
     id="path24"
     style="fill:#000000" />
</svg>
