<svg id="图层_1" data-name="图层 1" xmlns="http://www.w3.org/2000/svg" viewBox="0 0 115.56 45.24"><defs><style>.cls-1{fill:#595959;fill-rule:evenodd;}</style></defs><title>画板 1</title><polygon class="cls-1" points="0 0 10.92 0 10.92 44.04 0 44.04 0 0 0 0"/><polygon class="cls-1" points="18.96 14.16 29.88 14.16 29.88 44.04 18.96 44.04 18.96 14.16 18.96 14.16"/><path class="cls-1" d="M19.08,5.28a5.28,5.28,0,1,1,5.28,5.28,5.27,5.27,0,0,1-5.28-5.28Z"/><polygon class="cls-1" points="37.8 0 48.72 0 48.72 44.04 37.8 44.04 37.8 0 37.8 0"/><path class="cls-1" d="M69.31,13.82a45.24,45.24,0,0,0-13.78,1.93q-.11,4.13-.19,8.25c8.56-4.37,15.61-3.68,15.93.58-3.58.36-6,.79-10.42,1.57-5.14.92-8.41,4.49-8.41,9.55A9.68,9.68,0,0,0,62,45.24a9.54,9.54,0,0,0,8.79-5.83l.15-.73a5.29,5.29,0,1,1,.47-2.36l.07-.35v8.35H82.32V25.16C82.47,17.1,76.63,14.1,69.31,13.82Z"/><path class="cls-1" d="M107.15,32.58a5.29,5.29,0,1,1-1.5-7.7l5.33-9a15.72,15.72,0,1,0,3.52,24.15Z"/><path class="cls-1" d="M106.78,25.79,115.54,20A15.93,15.93,0,0,0,113,17.3l-6.68,8.05C106.48,25.49,106.63,25.64,106.78,25.79Z"/></svg>